<?xml version="1.0" encoding="UTF-8" standalone="no"?>
<svg
   xmlns:dc="http://purl.org/dc/elements/1.1/"
   xmlns:cc="http://creativecommons.org/ns#"
   xmlns:rdf="http://www.w3.org/1999/02/22-rdf-syntax-ns#"
   xmlns:svg="http://www.w3.org/2000/svg"
   xmlns="http://www.w3.org/2000/svg"
   xmlns:sodipodi="http://sodipodi.sourceforge.net/DTD/sodipodi-0.dtd"
   xmlns:inkscape="http://www.inkscape.org/namespaces/inkscape"
   id="svg3203"
   viewBox="0 0 325.33 265.27"
   version="1.1"
   inkscape:version="0.91 r13725"
   sodipodi:docname="swirl2_mod.svg">
  <defs
     id="defs9" />
  <sodipodi:namedview
     pagecolor="#ffffff"
     bordercolor="#666666"
     borderopacity="1"
     objecttolerance="10"
     gridtolerance="10"
     guidetolerance="10"
     inkscape:pageopacity="0"
     inkscape:pageshadow="2"
     inkscape:window-width="1280"
     inkscape:window-height="977"
     id="namedview7"
     showgrid="false"
     inkscape:zoom="2.5163374"
     inkscape:cx="173.06677"
     inkscape:cy="119.98026"
     inkscape:window-x="-4"
     inkscape:window-y="-4"
     inkscape:window-maximized="1"
     inkscape:current-layer="layer1" />
  <g
     id="layer1"
     transform="translate(-114.03 -47.11)">
    <path
       d="m 339.80273,41.152344 c -18.83318,0.814097 -39.34144,5.626838 -52.52539,19.919922 -3.11636,6.25185 6.13139,11.776981 11.01758,7.763672 34.34165,-14.858971 77.88734,-6.030136 102.50107,22.694776 21.6404,23.687076 30.10194,58.260866 24.04902,89.599486 -0.88831,5.38016 -2.56987,12.02141 -4.09306,16.26824 7.10116,-34.5804 -0.24486,-73.95001 -26.22656,-99.195315 -21.80084,-21.394529 -57.35116,-30.044393 -85.08984,-15.279297 -21.97096,11.247735 -36.81702,36.956812 -31.58505,61.716402 1.2799,7.4212 3.97888,17.27957 12.0577,19.53555 6.42736,0.0109 7.53218,-8.19081 5.48828,-12.8789 -4.85474,-21.50781 7.7374,-46.52173 29.42579,-53.460942 27.27102,-9.883949 58.67984,5.477482 72.0332,30.535152 21.66038,37.3773 12.39639,89.65516 -20.19531,117.63282 -17.5288,14.40162 -43.68098,20.12953 -64.30078,8.41601 -2.3093,-1.22706 -4.22451,-2.53341 -0.51172,-1.45898 8.09411,1.31139 18.2315,1.58612 24.19726,-4.83985 3.31377,-6.15358 -4.04531,-11.61242 -9.6875,-11.74414 -16.76044,-4.887 -24.55404,-21.95141 -33.20388,-35.43405 -5.26204,-8.31271 -10.55981,-18.17344 -19.78049,-22.43899 -7.02788,-0.75808 -9.10632,8.77909 -5.56181,13.47999 2.96226,8.27041 6.06717,16.49014 8.91532,24.80126 -13.06138,-19.04914 -25.11805,-40.60752 -46.23437,-51.88477 -29.16341,-16.82597 -68.74075,-13.74966 -93.99811,8.93365 -25.50206,21.7514 -35.79709,59.77466 -23.26278,91.10962 11.28743,30.41331 41.58002,53.04293 74.29555,53.3905 17.17753,0.47622 35.71435,-4.45384 47.82667,-17.18572 3.775,-5.00614 -0.62217,-14.02569 -7.32032,-11.6211 -14.40202,3.79197 -28.80801,10.044 -44.03711,7.62305 -29.68752,-3.02106 -55.7578,-28.44509 -57.15625,-58.61328 -1.89323,-25.68266 13.64983,-52.91128 38.73834,-61.60038 4.17369,-1.5704 8.45513,-2.65952 12.69721,-3.18673 -21.56252,6.72245 -39.2484,26.1259 -41.10162,49.04971 -0.64968,8.73116 0.46286,19.06133 7.03912,25.33701 5.96418,3.19985 12.21438,-4.15186 10.36133,-9.94922 0.60327,-20.37791 18.4672,-38.31052 38.93945,-38.66992 18.65996,-1.34073 36.39515,9.184 46.52853,24.50194 17.24872,21.79501 33.73444,47.37264 60.99283,57.51516 36.57696,14.44551 80.22668,0.83481 105.62629,-28.26711 31.79681,-34.4039 45.64513,-84.92126 35.15118,-130.64062 -9.10646,-37.402078 -38.62268,-70.521548 -76.91602,-78.894528 -8.20793,-1.932481 -16.66332,-2.816794 -25.09375,-2.580078 z"
       id="path3263"
       inkscape:connector-curvature="0" />
  </g>
  <metadata
     id="metadata5">
    <rdf:RDF>
      <cc:Work>
        <dc:format>image/svg+xml</dc:format>
        <dc:type
           rdf:resource="http://purl.org/dc/dcmitype/StillImage" />
        <cc:license
           rdf:resource="http://creativecommons.org/licenses/publicdomain/" />
        <dc:publisher>
          <cc:Agent
             rdf:about="http://openclipart.org/">
            <dc:title>Openclipart</dc:title>
          </cc:Agent>
        </dc:publisher>
        <dc:title></dc:title>
        <dc:date>2012-04-07T11:06:05</dc:date>
        <dc:description>clip art, clipart, curly, flourish, spiral, swirl, swoosh, vector, </dc:description>
        <dc:source>http://openclipart.org/detail/169392/swirl-2-by-seventyeightist</dc:source>
        <dc:creator>
          <cc:Agent>
            <dc:title>seventyeightist</dc:title>
          </cc:Agent>
        </dc:creator>
        <dc:subject>
          <rdf:Bag>
            <rdf:li>clip art</rdf:li>
            <rdf:li>clipart</rdf:li>
            <rdf:li>curly</rdf:li>
            <rdf:li>flourish</rdf:li>
            <rdf:li>spiral</rdf:li>
            <rdf:li>swirl</rdf:li>
            <rdf:li>swoosh</rdf:li>
            <rdf:li>vector</rdf:li>
          </rdf:Bag>
        </dc:subject>
      </cc:Work>
      <cc:License
         rdf:about="http://creativecommons.org/licenses/publicdomain/">
        <cc:permits
           rdf:resource="http://creativecommons.org/ns#Reproduction" />
        <cc:permits
           rdf:resource="http://creativecommons.org/ns#Distribution" />
        <cc:permits
           rdf:resource="http://creativecommons.org/ns#DerivativeWorks" />
      </cc:License>
    </rdf:RDF>
  </metadata>
</svg>
