<?xml version="1.0"?>
<svg xmlns:rdf="http://www.w3.org/1999/02/22-rdf-syntax-ns#" xmlns="http://www.w3.org/2000/svg" xmlns:cc="http://creativecommons.org/ns#" xmlns:dc="http://purl.org/dc/elements/1.1/" xmlns:svg="http://www.w3.org/2000/svg" id="svg3203" viewBox="0 0 325.33 265.27" version="1.1">
  <g id="layer1" transform="translate(-114.03 -47.11)">
    <path id="path3263" d="m304.6 228.78c2.903 3.5863 5.4732 5.8861 7.8774 7.2738 1.7481 1.3428 3.5388 2.3726 5.2202 3.2028 1.6814 0.83027 3.257 1.4607 4.6644 1.974 2.8147 1.0267 4.9429 1.605 6.3506 2.109 1.4076 0.50399 2.1157 0.92527 2.2303 1.372 0.11462 0.44679-0.36375 0.91202-1.3256 1.3539-0.96182 0.4419-2.41 0.85448-4.2019 1.1437-1.7919 0.28923-3.9269 0.45028-6.2104 0.41827-2.2835-0.032-4.7115-0.26029-7.075-0.65987-2.3636-0.39959-4.6594-0.97125-6.7231-1.5698-2.1159-0.50903-4.0241-1.129-5.5915-1.5378-1.5674-0.40879-2.7962-0.59956-3.5228-0.28775-0.72655 0.31182-0.9573 1.135-0.43901 2.6067 0.5183 1.4717 1.7651 3.6152 4.273 6.197 1.8987 2.0628 4.5984 4.4291 8.4295 6.742s8.8158 4.5821 15.106 6.0717c3.1362 0.74262 6.3884 1.2327 9.6977 1.4406 6.0772 0.38637 12.392-0.19808 18.643-1.7219s12.438-3.9867 18.233-7.2928c10.928-6.2212 20.449-15.676 27.677-26.807 7.0727-10.916 11.968-23.461 14.513-36.464 1.7812-9.2346 2.4455-18.704 1.8774-27.971-0.56804-9.2673-2.3683-18.33-5.4651-26.768-3.1325-8.5475-7.5759-16.542-12.983-23.461-5.4073-6.919-11.776-12.76-18.765-17.105-7.3234-4.5788-15.437-7.6696-23.466-9.1913-8.029-1.5218-15.969-1.4751-23.164 0.1345-7.7063 1.6148-14.862 4.9916-20.823 9.3181-6.3637 4.6792-11.433 10.403-14.691 16.393-1.7732 3.1539-3.1209 6.5148-4.114 9.9177-0.99316 3.4029-1.6317 6.848-1.9783 10.221-0.334 3.4625-0.36263 6.8625-0.14917 10.125 0.16981 2.5954 0.47929 4.7433 0.7644 6.4721 0.2851 1.7288 0.54602 3.0417 0.68568 3.983 0.13965 0.94138 0.15849 1.5125 0.0216 1.7411-0.1369 0.22862-0.42894 0.11461-0.85669-0.33791-0.85548-0.90504-2.2857-3.1712-3.6376-6.8704-0.67594-1.8496-1.3232-4.0575-1.8206-6.6032-0.49742-2.5458-0.84428-5.4306-0.9067-8.5875-0.057-3.4891 0.23526-7.3225 1.058-11.326 0.82274-4.0033 2.1768-8.177 4.2312-12.24v-0.00001c1.7485-3.5137 4.0479-6.9901 6.8711-10.277 2.8232-3.2865 6.1698-6.3825 9.9461-9.1149 6.8454-4.9242 15.169-8.6626 24.123-10.271 8.3837-1.5614 17.396-1.2605 26.22 0.79578 8.8234 2.0563 17.444 5.8623 24.987 11.085 7.6625 5.2882 14.287 12.089 19.649 19.689 5.3624 7.5999 9.4606 15.989 12.237 24.468 3.2598 9.9444 4.7183 20.075 4.9744 29.674 0.25607 9.5989-0.68393 18.661-2.181 26.734-1.7194 9.1821-4.2175 17.099-6.6084 23.506-2.3908 6.4069-4.6618 11.329-5.9901 14.74-0.0745 0.19125-0.14524 0.37594-0.21224 0.55418-0.87462 2.326-1.0878 3.5642-0.59124 3.8617 0.49655 0.29749 1.6985-0.34923 3.4467-1.9147 2.5817-2.3098 6.3673-6.6361 10.37-12.999 4.0031-6.3629 8.1962-14.792 11.403-24.943 2.8052-8.8074 4.9145-18.95 5.5645-29.905 0.64998-10.955-0.17329-22.71-3.0263-34.5-2.6435-10.889-7.1262-21.653-13.265-31.424-6.1388-9.7702-13.928-18.528-22.859-25.665-5.4372-4.3226-11.256-7.9494-17.209-10.867-5.9528-2.9171-12.038-5.1246-18.031-6.6816-5.9929-1.557-11.893-2.4641-17.514-2.8501-5.6215-0.38605-10.965-0.25224-15.889 0.21525-8.8567 0.93141-16.059 2.963-21.336 4.6906-2.6381 0.8638-4.802 1.6556-6.4764 2.2385-1.6743 0.5829-2.8604 0.95594-3.5285 1.0239-0.66816 0.06793-0.81956-0.17057-0.39065-0.75221s1.4376-1.5083 3.1363-2.734c1.6986-1.2257 4.0879-2.7532 7.3231-4.4187 3.2352-1.6654 7.319-3.4728 12.428-5.0896 2.5272-0.79976 5.0744-1.477 7.6323-2.0346 7.5827-1.5577 15.012-2.1107 22.143-1.8561 7.1316 0.25458 13.968 1.3168 20.423 3.0226 12.911 3.4115 24.281 9.3691 33.822 16.922 10.724 8.5614 18.971 18.619 25.134 29.432 6.1634 10.813 10.256 22.406 12.423 34.415v0.00001c1.9679 10.998 2.4385 22.166 1.4938 33.505-0.94474 11.339-3.3052 22.861-7.2142 34.447-2.2538 6.7682-5.0631 13.588-8.5359 20.379s-7.6081 13.555-12.568 20.147c-4.1926 5.5875-9.0229 11.031-14.582 16.116-5.5595 5.0849-11.847 9.8141-18.987 13.859-4.9892 2.8206-10.378 5.2738-16.134 7.2243-5.7556 1.9505-11.878 3.399-18.314 4.1634-3.2026 0.38042-6.3681 0.57516-9.4839 0.59738-8.7826 0.0554-17.057-1.3234-24.574-3.67-7.5175-2.3467-14.286-5.6646-20.258-9.6394-4.6218-3.2023-8.6293-6.6054-12.219-10.031-3.5901-3.4256-6.7612-6.8753-9.6447-10.239-5.7671-6.7282-10.41-13.087-14.501-18.706-2.9613-3.8035-5.7142-7.302-8.3521-10.463-2.6379-3.1606-5.1588-5.9857-7.6216-8.4722-4.9257-4.9729-9.6089-8.6211-14.455-10.829-3.6611-1.8746-7.5144-3.2683-11.53-4.2569-4.0159-0.9886-8.2064-1.5803-12.513-1.6091h-0.00001c-3.3066-0.0413-6.8248 0.23226-10.502 0.91877-3.6775 0.68651-7.5253 1.7832-11.294 3.4979-2.8728 1.2836-5.8451 2.9907-8.7678 5.1773-2.9227 2.1865-5.8023 4.8543-8.3064 8.0313-1.9839 2.4825-3.8262 5.413-5.3649 8.7365-1.013 2.1879-1.7686 4.2746-2.3424 6.1964-0.57374 1.9218-0.96598 3.6804-1.2466 5.2567-0.38038 2.0642-0.57549 3.8751-0.71672 5.3976-0.14122 1.5225-0.22743 2.7595-0.33437 3.7175-0.21388 1.916-0.53958 2.7234-1.1235 2.5457-0.58389-0.17773-1.4124-1.346-2.2385-3.414-0.82611-2.068-1.6389-5.0497-1.9753-8.7122-0.33809-3.527-0.20615-7.786 0.71471-12.383 0.92086-4.5974 2.6356-9.5219 5.2425-14.171 2.2728-4.0828 5.3011-8.0408 8.8589-11.538 3.5578-3.4967 7.6379-6.5245 11.907-8.879h0.00001c5.2808-2.9292 10.965-4.8686 16.263-6.0024 5.2982-1.1338 10.203-1.4718 14.191-1.5336 2.9992-0.051 5.5079 0.045 7.3576 0.0183s3.0462-0.18168 3.4206-0.64201c0.37442-0.46033-0.0694-1.2355-1.5784-2.2982s-4.0888-2.4301-8.0603-3.6743c-0.46521-0.146-0.94965-0.28968-1.4538-0.42986-4.8791-1.3567-10.479-2.1222-16.508-1.9609-6.0285 0.16136-12.484 1.2526-18.902 3.5303-5.6157 1.9921-11.196 4.8958-16.39 8.6803s-9.9988 8.4487-14.046 13.856c-3.7734 5.0423-6.88 10.724-9.1465 16.785-2.2665 6.0613-3.6921 12.5-4.1561 19.018-0.46193 6.4907 0.0305 13.048 1.3976 19.368 1.3671 6.3202 3.608 12.401 6.5935 17.975 3.1686 5.9162 7.1687 11.254 11.684 15.848 4.5157 4.5942 9.5447 8.444 14.789 11.48h0.00001c6.1562 3.5639 12.596 6.0056 18.851 7.5155s12.325 2.0899 17.91 2.0247c6.3787-0.0742 12.119-0.9762 17.029-2.1258 4.9101-1.1496 8.9985-2.5447 12.247-3.6952 3.2482-1.1504 5.6681-2.0539 7.2574-2.3401 1.5893-0.28622 2.3594 0.0505 2.145 1.2046-0.16035 0.86277-1.0547 2.099-2.7115 3.5825-1.6568 1.4834-4.0799 3.212-7.295 4.9325-3.2151 1.7206-7.2263 3.431-11.997 4.784-4.7709 1.353-10.305 2.3463-16.446 2.5718-6.2544 0.22371-13.09-0.3613-20.146-2.0801-7.0564-1.7188-14.333-4.5736-21.298-8.7835-5.7859-3.5047-11.299-7.9177-16.219-13.177-4.9202-5.2588-9.2463-11.363-12.635-18.151-3.087-6.1982-5.3632-12.915-6.6868-19.906-1.3236-6.9915-1.6945-14.257-1.0015-21.504 1.3395-13.898 6.6131-27.513 15.144-38.741 0.00001 0 0.00001-0.00001 0.00002-0.00002 8.4915-11.161 20.06-19.776 32.848-24.743 6.5866-2.5544 13.452-4.1338 20.309-4.7768 6.8571-0.64292 13.704-0.34951 20.293 0.81433 7.086 1.2557 13.828 3.508 20.015 6.5083 6.1867 3.0003 11.817 6.7478 16.76 11.008 7.2565 6.3441 12.87 13.382 17.72 20.163 4.8504 6.7804 8.9376 13.3 12.715 18.968 0.14364 0.21555 0.28609 0.42893 0.42736 0.64016 3.1857 4.608 5.8737 8.2308 8.1419 10.962 2.2682 2.7309 4.1067 4.5864 5.5411 5.7771s2.4629 1.7215 3.1414 1.7662c0.67848 0.0447 1.0085-0.39736 1.0753-1.2168 0.13358-1.6389-0.75615-4.7938-2.0657-8.9103-1.3095-4.1165-3.0518-9.2226-4.983-14.485-0.8806-2.7397-1.8173-5.547-2.7719-8.2821-0.95464-2.7352-1.9283-5.3973-2.8406-7.8353-1.8245-4.8761-3.4224-8.8514-3.6893-10.728-0.13344-0.93852 0.0743-1.353 0.73214-1.097 0.65785 0.25601 1.7697 1.1848 3.3432 2.9147s3.6083 4.2689 5.9794 7.6541c2.3711 3.3851 5.0682 7.6355 7.9078 12.5 2.1836 3.2236 4.4795 6.7772 6.8797 10.428 2.4002 3.651 4.8977 7.4096 7.6104 10.761z"/>
  </g>
  <metadata>
    <rdf:RDF>
      <cc:Work>
        <dc:format>image/svg+xml</dc:format>
        <dc:type rdf:resource="http://purl.org/dc/dcmitype/StillImage"/>
        <cc:license rdf:resource="http://creativecommons.org/licenses/publicdomain/"/>
        <dc:publisher>
          <cc:Agent rdf:about="http://openclipart.org/">
            <dc:title>Openclipart</dc:title>
          </cc:Agent>
        </dc:publisher>
        <dc:title>swirl 2</dc:title>
        <dc:date>2012-04-07T11:06:05</dc:date>
        <dc:description>clip art, clipart, curly, flourish, spiral, swirl, swoosh, vector, </dc:description>
        <dc:source>http://openclipart.org/detail/169392/swirl-2-by-seventyeightist</dc:source>
        <dc:creator>
          <cc:Agent>
            <dc:title>seventyeightist</dc:title>
          </cc:Agent>
        </dc:creator>
        <dc:subject>
          <rdf:Bag>
            <rdf:li>clip art</rdf:li>
            <rdf:li>clipart</rdf:li>
            <rdf:li>curly</rdf:li>
            <rdf:li>flourish</rdf:li>
            <rdf:li>spiral</rdf:li>
            <rdf:li>swirl</rdf:li>
            <rdf:li>swoosh</rdf:li>
            <rdf:li>vector</rdf:li>
          </rdf:Bag>
        </dc:subject>
      </cc:Work>
      <cc:License rdf:about="http://creativecommons.org/licenses/publicdomain/">
        <cc:permits rdf:resource="http://creativecommons.org/ns#Reproduction"/>
        <cc:permits rdf:resource="http://creativecommons.org/ns#Distribution"/>
        <cc:permits rdf:resource="http://creativecommons.org/ns#DerivativeWorks"/>
      </cc:License>
    </rdf:RDF>
  </metadata>
</svg>
